<?xml version="1.0" encoding="UTF-8" standalone="no"?>
<!-- Created with Inkscape (http://www.inkscape.org/) -->

<svg
   width="295.67191mm"
   height="211.66666mm"
   viewBox="0 0 295.67192 211.66666"
   version="1.1"
   id="svg1"
   xmlns:xlink="http://www.w3.org/1999/xlink"
   xmlns="http://www.w3.org/2000/svg"
   xmlns:svg="http://www.w3.org/2000/svg">
  <defs
     id="defs1">
    <linearGradient
       id="linearGradient2">
      <stop
         style="stop-color:#34352d;stop-opacity:1;"
         offset="0"
         id="stop2" />
      <stop
         style="stop-color:#222222;stop-opacity:1;"
         offset="1"
         id="stop3" />
    </linearGradient>
    <linearGradient
       xlink:href="#linearGradient2"
       id="linearGradient3"
       x1="43.266521"
       y1="356.48923"
       x2="977.92548"
       y2="356.48923"
       gradientUnits="userSpaceOnUse"
       gradientTransform="matrix(0.26458333,0,0,0.26458333,0.745878,3.9304338)" />
  </defs>
  <g
     id="layer1">
    <g
       id="g6"
       transform="matrix(1.1442818,0,0,1.1943263,-9.2474072,32.109378)">
      <path
         d="m 14.945176,48.571745 h 9.207476 q 2.134301,0 4.004019,-0.42333 1.869715,-0.440974 3.457213,-1.234721 1.587494,-0.811387 2.822215,-1.957911 1.234718,-1.146524 2.099021,-2.575272 0.864304,-1.446384 1.305275,-3.157352 0.45861,-1.710968 0.45861,-3.615963 0,-1.922634 -0.45861,-3.615962 -0.440971,-1.710969 -1.305275,-3.139715 -0.864303,-1.446386 -2.099021,-2.59291 -1.234721,-1.146525 -2.822215,-1.940273 -1.587498,-0.811387 -3.457213,-1.234719 -1.869718,-0.440971 -4.004019,-0.440971 h -9.207476 z m 5.556236,-4.815403 V 27.45805 h 3.65124 q 1.269997,0 2.363606,0.264583 1.093607,0.246943 2.010827,0.723192 0.917221,0.476249 1.622775,1.181803 0.723193,0.687915 1.21708,1.605136 0.511527,0.89958 0.758471,2.010828 0.26458,1.093607 0.26458,2.363604 0,1.269995 -0.26458,2.381242 -0.246944,1.093611 -0.758471,2.010828 -0.493887,0.899584 -1.21708,1.605138 -0.705554,0.687914 -1.622775,1.164161 -0.91722,0.47625 -2.010827,0.740833 -1.093609,0.246944 -2.363606,0.246944 z m 29.445665,5.362207 q 0.970137,0 1.834441,-0.176387 0.881941,-0.17639 1.622772,-0.511527 0.740833,-0.352777 1.340553,-0.829027 0.61736,-0.476247 1.058331,-1.040691 v 2.010828 h 5.362207 V 30.192071 h -5.362207 v 2.010827 q -0.282223,-0.388054 -0.670277,-0.723191 -0.370417,-0.352777 -0.811387,-0.635 -0.423331,-0.28222 -0.91722,-0.493887 -0.493888,-0.229305 -1.058331,-0.388054 -0.546804,-0.15875 -1.146524,-0.229305 -0.599721,-0.08819 -1.252358,-0.08819 -1.322914,0 -2.522355,0.335139 -1.181801,0.317499 -2.204855,0.934859 -1.005414,0.61736 -1.834441,1.481661 -0.811384,0.864304 -1.375828,1.957914 -0.564443,1.075968 -0.881943,2.345965 -0.29986,1.269997 -0.29986,2.681105 0,1.411107 0.29986,2.681102 0.3175,1.269998 0.881943,2.345968 0.564444,1.07597 1.375828,1.957911 0.829027,0.864304 1.834441,1.481664 1.023054,0.617358 2.204855,0.934858 1.199441,0.335137 2.522355,0.335137 z m 1.322914,-4.603737 q -0.687917,0 -1.322914,-0.15875 -0.61736,-0.176389 -1.164164,-0.47625 -0.529164,-0.317497 -0.987774,-0.75847 -0.440971,-0.440971 -0.758471,-1.005414 -0.29986,-0.582081 -0.47625,-1.269995 -0.176387,-0.687917 -0.176387,-1.464024 0,-0.793747 0.176387,-1.464024 0.17639,-0.687917 0.47625,-1.252358 0.3175,-0.582083 0.758471,-1.023054 0.45861,-0.44097 0.987774,-0.74083 0.546804,-0.3175 1.164164,-0.47625 0.634997,-0.176387 1.322914,-0.176387 0.687914,0 1.322914,0.176387 0.634997,0.15875 1.164161,0.47625 0.546807,0.29986 0.987777,0.74083 0.440971,0.440971 0.758471,1.023054 0.317497,0.564441 0.476247,1.252358 0.17639,0.670277 0.17639,1.464024 0,0.776107 -0.17639,1.464024 -0.15875,0.687914 -0.476247,1.269995 -0.3175,0.564443 -0.758471,1.005414 -0.44097,0.440973 -0.987777,0.75847 -0.529164,0.299861 -1.181801,0.47625 -0.634997,0.15875 -1.305274,0.15875 z m 32.384899,4.603737 q 1.305274,0 2.539992,-0.229304 1.234721,-0.211666 2.345968,-0.670277 1.128884,-0.45861 2.151938,-1.181801 1.023054,-0.723193 1.922635,-1.728607 l -2.875132,-3.104436 q -0.599721,0.687914 -1.269998,1.217081 -0.670274,0.511524 -1.411107,0.846664 -0.723191,0.317497 -1.499301,0.476247 -0.77611,0.14111 -1.569858,0.14111 -0.74083,0 -1.393468,-0.12347 -0.652637,-0.14111 -1.23472,-0.388054 -0.564441,-0.246946 -1.040691,-0.599723 -0.45861,-0.352774 -0.829024,-0.811384 -0.352777,-0.458611 -0.599721,-1.005415 -0.229306,-0.546806 -0.3175,-1.146526 h 14.16399 q 0.141113,-1.781522 -0.08819,-3.298463 -0.229303,-1.516941 -0.793747,-2.751659 -0.546804,-1.25236 -1.411107,-2.222494 -0.846664,-0.970137 -1.975552,-1.622774 -1.111247,-0.670277 -2.469438,-1.005415 -1.340551,-0.352777 -2.875132,-0.352777 -1.481661,0 -2.804575,0.352777 -1.305274,0.335138 -2.416522,0.970138 -1.093607,0.617357 -1.975551,1.499301 -0.864301,0.881941 -1.481661,1.975551 -0.61736,1.093607 -0.952497,2.363605 -0.3175,1.269994 -0.3175,2.663465 0,1.375828 0.335137,2.645825 0.33514,1.252358 0.952497,2.345968 0.635,1.075968 1.552221,1.957911 0.917217,0.864304 2.081381,1.499302 1.164164,0.61736 2.557632,0.952497 1.393471,0.335137 2.998605,0.335137 z M 78.416153,37.106498 q 0.08819,-0.617361 0.282221,-1.128888 0.211666,-0.511524 0.529166,-0.934857 0.3175,-0.423333 0.723191,-0.740831 0.405694,-0.3175 0.881944,-0.529166 0.493887,-0.229304 1.058331,-0.335138 0.564443,-0.105833 1.181801,-0.105833 0.91722,0 1.69333,0.246944 0.793748,0.246943 1.393468,0.723193 0.599721,0.476248 0.987777,1.181801 0.405691,0.705554 0.529164,1.622775 z m 24.906077,12.012051 q 1.60514,0 2.98097,-0.423331 1.39347,-0.405693 2.41652,-1.164164 1.02305,-0.77611 1.60513,-1.852078 0.59973,-1.09361 0.59973,-2.434161 0,-1.305274 -0.42334,-2.240132 -0.42333,-0.9525 -1.1818,-1.622774 -0.75847,-0.670277 -1.8168,-1.111247 -1.05833,-0.440971 -2.32833,-0.758471 l -1.83444,-0.44097 q -0.59972,-0.141113 -1.05833,-0.3175 -0.45861,-0.17639 -0.77611,-0.388054 -0.29986,-0.229307 -0.45861,-0.511527 -0.15875,-0.282223 -0.15875,-0.652637 0,-0.370417 0.17639,-0.670277 0.19403,-0.29986 0.51153,-0.493887 0.33514,-0.211667 0.75847,-0.3175 0.44097,-0.105833 0.93486,-0.105833 0.37041,0 0.74083,0.05292 0.38805,0.05292 0.75847,0.15875 0.37041,0.105834 0.70555,0.29986 0.35278,0.194027 0.67028,0.458611 0.3175,0.264583 0.59972,0.59972 0.28222,0.335137 0.51152,0.77611 l 3.36902,-2.698744 q -0.59972,-0.934858 -1.42874,-1.622772 -0.81139,-0.705554 -1.78153,-1.164164 -0.97013,-0.458611 -2.06374,-0.687916 -1.09361,-0.229305 -2.24013,-0.229305 -1.00542,0 -1.94028,0.176389 -0.93486,0.176388 -1.763884,0.511526 -0.811387,0.335139 -1.499301,0.829027 -0.670277,0.476247 -1.146524,1.093607 -0.47625,0.61736 -0.740831,1.358191 -0.264583,0.740831 -0.264583,1.605134 0,1.217081 0.405693,2.151939 0.423331,0.93486 1.146525,1.640414 0.723193,0.687914 1.710967,1.164164 1.005418,0.476247 2.151938,0.75847 l 1.72861,0.423331 q 0.75847,0.194027 1.28764,0.405693 0.52916,0.194027 0.8643,0.440971 0.33514,0.229306 0.49389,0.529167 0.15875,0.29986 0.15875,0.687914 0,0.405693 -0.21167,0.740833 -0.19403,0.317497 -0.5468,0.546804 -0.33514,0.229303 -0.81139,0.352777 -0.47625,0.105833 -1.02305,0.105833 -0.74084,0 -1.42875,-0.19403 -0.68792,-0.194027 -1.32292,-0.564441 -0.617354,-0.370416 -1.164158,-0.91722 -0.546806,-0.564444 -1.005414,-1.305274 l -3.316105,2.875132 q 0.61736,0.987774 1.499304,1.763884 0.899581,0.75847 1.993188,1.287634 1.093608,0.529167 2.345965,0.811388 1.27,0.28222 2.61055,0.28222 z m 18.00926,0 q 1.60514,0 2.98097,-0.423331 1.39347,-0.405693 2.41652,-1.164164 1.02305,-0.77611 1.60513,-1.852078 0.59972,-1.09361 0.59972,-2.434161 0,-1.305274 -0.42333,-2.240132 -0.42333,-0.9525 -1.1818,-1.622774 -0.75847,-0.670277 -1.8168,-1.111247 -1.05833,-0.440971 -2.32833,-0.758471 l -1.83444,-0.44097 q -0.59972,-0.141113 -1.05833,-0.3175 -0.45861,-0.17639 -0.77611,-0.388054 -0.29986,-0.229307 -0.45861,-0.511527 -0.15875,-0.282223 -0.15875,-0.652637 0,-0.370417 0.17639,-0.670277 0.19403,-0.29986 0.51153,-0.493887 0.33514,-0.211667 0.75847,-0.3175 0.44097,-0.105833 0.93486,-0.105833 0.37041,0 0.74083,0.05292 0.38805,0.05292 0.75847,0.15875 0.37041,0.105834 0.70555,0.29986 0.35278,0.194027 0.67028,0.458611 0.3175,0.264583 0.59972,0.59972 0.28222,0.335137 0.51153,0.77611 l 3.36901,-2.698744 q -0.59972,-0.934858 -1.42874,-1.622772 -0.81139,-0.705554 -1.78152,-1.164164 -0.97014,-0.458611 -2.06375,-0.687916 -1.09361,-0.229305 -2.24013,-0.229305 -1.00542,0 -1.94028,0.176389 -0.93485,0.176388 -1.76388,0.511526 -0.81139,0.335139 -1.4993,0.829027 -0.67028,0.476247 -1.14652,1.093607 -0.47625,0.61736 -0.74084,1.358191 -0.26458,0.740831 -0.26458,1.605134 0,1.217081 0.40569,2.151939 0.42334,0.93486 1.14653,1.640414 0.72319,0.687914 1.71097,1.164164 1.00541,0.476247 2.15193,0.75847 l 1.72861,0.423331 q 0.75847,0.194027 1.28764,0.405693 0.52916,0.194027 0.8643,0.440971 0.33514,0.229306 0.49389,0.529167 0.15875,0.29986 0.15875,0.687914 0,0.405693 -0.21167,0.740833 -0.19403,0.317497 -0.5468,0.546804 -0.33514,0.229303 -0.81139,0.352777 -0.47625,0.105833 -1.02305,0.105833 -0.74083,0 -1.42875,-0.19403 -0.68791,-0.194027 -1.32291,-0.564441 -0.61736,-0.370416 -1.16417,-0.91722 -0.5468,-0.564444 -1.00541,-1.305274 l -3.3161,2.875132 q 0.61736,0.987774 1.4993,1.763884 0.89958,0.75847 1.99319,1.287634 1.09361,0.529167 2.34596,0.811388 1.27,0.28222 2.61055,0.28222 z m 20.46105,0 q 1.30528,0 2.54,-0.229304 1.23472,-0.211666 2.34596,-0.670277 1.12889,-0.45861 2.15195,-1.181801 1.02305,-0.723193 1.92263,-1.728607 l -2.87513,-3.104436 q -0.59972,0.687914 -1.27,1.217081 -0.67028,0.511524 -1.41111,0.846664 -0.72319,0.317497 -1.4993,0.476247 -0.77611,0.14111 -1.56986,0.14111 -0.74083,0 -1.39347,-0.12347 -0.65263,-0.14111 -1.23471,-0.388054 -0.56445,-0.246946 -1.04069,-0.599723 -0.45861,-0.352774 -0.82903,-0.811384 -0.35278,-0.458611 -0.59972,-1.005415 -0.22931,-0.546806 -0.3175,-1.146526 h 14.16399 q 0.14111,-1.781522 -0.0882,-3.298463 -0.22931,-1.516941 -0.79375,-2.751659 -0.54681,-1.25236 -1.41111,-2.222494 -0.84666,-0.970137 -1.97555,-1.622774 -1.11125,-0.670277 -2.46944,-1.005415 -1.34055,-0.352777 -2.87513,-0.352777 -1.48166,0 -2.80457,0.352777 -1.30528,0.335138 -2.41653,0.970138 -1.09361,0.617357 -1.97555,1.499301 -0.8643,0.881941 -1.48166,1.975551 -0.61736,1.093607 -0.9525,2.363605 -0.3175,1.269994 -0.3175,2.663465 0,1.375828 0.33514,2.645825 0.33514,1.252358 0.9525,2.345968 0.635,1.075968 1.55222,1.957911 0.91722,0.864304 2.08138,1.499302 1.16416,0.61736 2.55763,0.952497 1.39347,0.335137 2.9986,0.335137 z m -5.23873,-12.012051 q 0.0882,-0.617361 0.28222,-1.128888 0.21167,-0.511524 0.52917,-0.934857 0.3175,-0.423333 0.72319,-0.740831 0.40569,-0.3175 0.88194,-0.529166 0.49389,-0.229304 1.05833,-0.335138 0.56444,-0.105833 1.1818,-0.105833 0.91722,0 1.69333,0.246944 0.79375,0.246943 1.39347,0.723193 0.59972,0.476248 0.98778,1.181801 0.40569,0.705554 0.52916,1.622775 z m -2.41652,-9.913031 h 4.86832 l 2.34596,-3.139714 2.36361,3.139714 h 4.85068 l -4.65665,-5.679707 h -5.11527 z m 20.53164,21.378278 h 5.36221 v -9.948307 q 0,-1.07597 0.22931,-1.904994 0.2293,-0.829027 0.67027,-1.375831 0.44098,-0.564443 1.11125,-0.846664 0.67028,-0.282223 1.56986,-0.282223 0.88194,0 1.55222,0.282223 0.67027,0.282221 1.11125,0.846664 0.45861,0.546804 0.67027,1.375831 0.22931,0.829024 0.22931,1.904994 v 9.948307 h 5.3622 V 37.212331 q 0,-1.763885 -0.4586,-3.174992 -0.44098,-1.411108 -1.32292,-2.381245 -0.8643,-0.987774 -2.1343,-1.499301 -1.25236,-0.511527 -2.87513,-0.511527 -0.98778,0 -1.85208,0.176389 -0.84666,0.15875 -1.55222,0.493888 -0.70555,0.3175 -1.28763,0.793747 -0.58209,0.458611 -1.02306,1.075971 v -1.99319 h -5.36221 z m 31.43242,0.546804 q 1.49931,0 2.92805,-0.352777 1.42875,-0.352777 2.66347,-1.058331 1.23472,-0.72319 2.24013,-1.799161 1.00542,-1.093607 1.65805,-2.557632 l -4.83304,-2.028467 q -0.29986,0.793747 -0.77611,1.39347 -0.45861,0.59972 -1.05833,0.987774 -0.59972,0.388054 -1.32291,0.582081 -0.7232,0.194027 -1.53458,0.194027 -0.68792,0 -1.30528,-0.176387 -0.61736,-0.17639 -1.14652,-0.493887 -0.52917,-0.3175 -0.9525,-0.776111 -0.42333,-0.45861 -0.72319,-1.023051 -0.29986,-0.564443 -0.45861,-1.23472 -0.15875,-0.687914 -0.15875,-1.428748 0,-0.758467 0.15875,-1.428744 0.15875,-0.670277 0.45861,-1.234721 0.29986,-0.58208 0.72319,-1.023051 0.42333,-0.45861 0.9525,-0.77611 0.52916,-0.335137 1.14652,-0.493887 0.61736,-0.17639 1.30528,-0.17639 0.81138,0 1.53458,0.17639 0.72319,0.176387 1.32291,0.564443 0.59972,0.370414 1.05833,0.952498 0.47625,0.58208 0.77611,1.393467 l 4.83304,-1.975551 q -0.65263,-1.464024 -1.65805,-2.539992 -1.00541,-1.093607 -2.24013,-1.799161 -1.23472,-0.723194 -2.66347,-1.075971 -1.42874,-0.352777 -2.92805,-0.352777 -1.4993,0 -2.83985,0.352777 -1.34055,0.335138 -2.46944,0.970138 -1.11124,0.617357 -2.01082,1.499301 -0.89958,0.881941 -1.53458,1.975551 -0.61736,1.075968 -0.9525,2.345965 -0.33514,1.269997 -0.33514,2.645825 0,1.375831 0.33514,2.645828 0.33514,1.269998 0.9525,2.363605 0.635,1.075971 1.53458,1.957912 0.89958,0.881943 2.01082,1.516941 1.12889,0.61736 2.46944,0.952497 1.34055,0.335137 2.83985,0.335137 z M 201.553,27.228745 q 0.68791,0 1.28763,-0.211666 0.59972,-0.229305 1.02306,-0.634998 0.44097,-0.423333 0.68791,-0.987776 0.24695,-0.582082 0.24695,-1.287635 0,-0.705554 -0.24695,-1.287636 -0.24694,-0.582082 -0.68791,-0.987775 -0.42334,-0.423332 -1.02306,-0.634998 -0.59972,-0.229306 -1.28763,-0.229306 -0.70556,0 -1.30528,0.229306 -0.59972,0.211666 -1.04069,0.634998 -0.42333,0.405693 -0.68791,0.987775 -0.24695,0.582082 -0.24695,1.287636 0,0.705553 0.24695,1.287635 0.26458,0.564443 0.68791,0.987776 0.44097,0.405693 1.04069,0.634998 0.59972,0.211666 1.30528,0.211666 z m -2.69874,21.343 h 5.3622 V 30.192071 h -5.3622 z m 18.13276,0.546804 q 0.97013,0 1.83444,-0.176387 0.88194,-0.17639 1.62277,-0.511527 0.74083,-0.352777 1.34055,-0.829027 0.61736,-0.476247 1.05833,-1.040691 v 2.010828 h 5.36221 V 30.192071 h -5.36221 v 2.010827 q -0.28222,-0.388054 -0.67027,-0.723191 -0.37042,-0.352777 -0.81139,-0.635 -0.42333,-0.28222 -0.91722,-0.493887 -0.49389,-0.229305 -1.05833,-0.388054 -0.5468,-0.15875 -1.14652,-0.229305 -0.59972,-0.08819 -1.25236,-0.08819 -1.32292,0 -2.52236,0.335139 -1.1818,0.317499 -2.20485,0.934859 -1.00542,0.61736 -1.83444,1.481661 -0.81139,0.864304 -1.37583,1.957914 -0.56445,1.075968 -0.88194,2.345965 -0.29986,1.269997 -0.29986,2.681105 0,1.411107 0.29986,2.681102 0.31749,1.269998 0.88194,2.345968 0.56444,1.07597 1.37583,1.957911 0.82902,0.864304 1.83444,1.481664 1.02305,0.617358 2.20485,0.934858 1.19944,0.335137 2.52236,0.335137 z m 1.32291,-4.603737 q -0.68791,0 -1.32291,-0.15875 -0.61736,-0.176389 -1.16417,-0.47625 -0.52916,-0.317497 -0.98777,-0.75847 -0.44097,-0.440971 -0.75847,-1.005414 -0.29986,-0.582081 -0.47625,-1.269995 -0.17639,-0.687917 -0.17639,-1.464024 0,-0.793747 0.17639,-1.464024 0.17639,-0.687917 0.47625,-1.252358 0.3175,-0.582083 0.75847,-1.023054 0.45861,-0.44097 0.98777,-0.74083 0.54681,-0.3175 1.16417,-0.47625 0.635,-0.176387 1.32291,-0.176387 0.68792,0 1.32291,0.176387 0.635,0.15875 1.16417,0.47625 0.5468,0.29986 0.98777,0.74083 0.44097,0.440971 0.75847,1.023054 0.3175,0.564441 0.47625,1.252358 0.17639,0.670277 0.17639,1.464024 0,0.776107 -0.17639,1.464024 -0.15875,0.687914 -0.47625,1.269995 -0.3175,0.564443 -0.75847,1.005414 -0.44097,0.440973 -0.98777,0.75847 -0.52917,0.299861 -1.18181,0.47625 -0.63499,0.15875 -1.30527,0.15875 z m 31.04435,4.603737 q 0.97013,0 1.83444,-0.176387 0.88194,-0.17639 1.62277,-0.511527 0.74083,-0.352777 1.34055,-0.829027 0.61736,-0.476247 1.05833,-1.040691 v 2.010828 h 5.36221 V 30.192071 h -5.36221 v 2.010827 q -0.28222,-0.388054 -0.67027,-0.723191 -0.37042,-0.352777 -0.81139,-0.635 -0.42333,-0.28222 -0.91722,-0.493887 -0.49389,-0.229305 -1.05833,-0.388054 -0.54681,-0.15875 -1.14653,-0.229305 -0.59972,-0.08819 -1.25235,-0.08819 -1.32292,0 -2.52236,0.335139 -1.1818,0.317499 -2.20485,0.934859 -1.00542,0.61736 -1.83444,1.481661 -0.81139,0.864304 -1.37583,1.957914 -0.56445,1.075968 -0.88195,2.345965 -0.29986,1.269997 -0.29986,2.681105 0,1.411107 0.29986,2.681102 0.3175,1.269998 0.88195,2.345968 0.56444,1.07597 1.37583,1.957911 0.82902,0.864304 1.83444,1.481664 1.02305,0.617358 2.20485,0.934858 1.19944,0.335137 2.52236,0.335137 z m 1.32291,-4.603737 q -0.68791,0 -1.32291,-0.15875 -0.61736,-0.176389 -1.16417,-0.47625 -0.52916,-0.317497 -0.98777,-0.75847 -0.44097,-0.440971 -0.75847,-1.005414 -0.29986,-0.582081 -0.47625,-1.269995 -0.17639,-0.687917 -0.17639,-1.464024 0,-0.793747 0.17639,-1.464024 0.17639,-0.687917 0.47625,-1.252358 0.3175,-0.582083 0.75847,-1.023054 0.45861,-0.44097 0.98777,-0.74083 0.54681,-0.3175 1.16417,-0.47625 0.635,-0.176387 1.32291,-0.176387 0.68791,0 1.32291,0.176387 0.635,0.15875 1.16417,0.47625 0.5468,0.29986 0.98777,0.74083 0.44097,0.440971 0.75847,1.023054 0.3175,0.564441 0.47625,1.252358 0.17639,0.670277 0.17639,1.464024 0,0.776107 -0.17639,1.464024 -0.15875,0.687914 -0.47625,1.269995 -0.3175,0.564443 -0.75847,1.005414 -0.44097,0.440973 -0.98777,0.75847 -0.52917,0.299861 -1.18181,0.47625 -0.63499,0.15875 -1.30527,0.15875 z m -2.02847,-17.321345 h 5.69735 l -4.78013,-5.679707 h -6.34998 z M 25.757787,93.21566 q 1.340552,0 2.539995,-0.335139 1.19944,-0.317498 2.204854,-0.934858 1.023054,-0.61736 1.834439,-1.481664 0.829027,-0.864301 1.39347,-1.940271 0.564444,-1.093608 0.864304,-2.363605 0.317497,-1.269998 0.317497,-2.681105 0,-1.411108 -0.317497,-2.681105 -0.29986,-1.269995 -0.864304,-2.345965 -0.564443,-1.093608 -1.39347,-1.957912 -0.811385,-0.864303 -1.834439,-1.481664 -1.005414,-0.617357 -2.204854,-0.934857 -1.199443,-0.335137 -2.539995,-0.335137 -0.952497,0 -1.834439,0.176387 -0.864304,0.17639 -1.605135,0.529166 -0.740832,0.335138 -1.358191,0.811385 -0.599721,0.45861 -1.040692,1.040693 v -2.010828 h -5.362209 v 25.17063 h 5.362209 v -8.801782 q 0.440971,0.564441 1.040692,1.040691 0.617359,0.476247 1.358191,0.829024 0.740831,0.33514 1.605135,0.511527 0.881942,0.176389 1.834439,0.176389 z m -1.305274,-4.603739 q -0.687915,0 -1.322913,-0.15875 -0.61736,-0.176387 -1.164164,-0.476247 -0.546804,-0.3175 -0.987775,-0.758471 -0.440971,-0.44097 -0.758471,-1.005414 -0.29986,-0.582083 -0.476248,-1.269997 -0.176389,-0.687914 -0.176389,-1.464024 0,-0.793748 0.176389,-1.464025 0.176388,-0.687914 0.476248,-1.252357 0.3175,-0.582081 0.758471,-1.023054 0.440971,-0.44097 0.987775,-0.740831 0.546804,-0.3175 1.164164,-0.476247 0.634998,-0.17639 1.322913,-0.17639 0.670276,0 1.305274,0.17639 0.634999,0.158747 1.164164,0.476247 0.546804,0.299861 0.987774,0.740831 0.45861,0.440973 0.758471,1.023054 0.3175,0.564443 0.47625,1.252357 0.176387,0.670277 0.176387,1.464025 0,0.77611 -0.176387,1.464024 -0.15875,0.687914 -0.47625,1.269997 -0.299861,0.564444 -0.758471,1.005414 -0.44097,0.440971 -0.987774,0.758471 -0.529165,0.29986 -1.164164,0.476247 -0.634998,0.15875 -1.305274,0.15875 z m 14.093446,4.056936 h 5.362207 v -8.325536 q 0,-1.07597 0.246946,-1.904994 0.264581,-0.846664 0.723191,-1.446385 0.47625,-0.59972 1.111248,-0.970137 0.635,-0.388054 1.37583,-0.564443 0.740831,-0.176387 1.552218,-0.15875 0.829027,0.01765 1.640412,0.194027 v -5.556234 q -0.811385,-0.0882 -1.763885,0.01765 -0.934858,0.0882 -1.852078,0.45861 -0.91722,0.352777 -1.728605,1.023054 -0.79375,0.652637 -1.305277,1.675691 v -2.822218 h -5.362207 z m 24.008048,0.546803 q 1.305274,0 2.539992,-0.229306 1.234721,-0.211664 2.345968,-0.670274 1.128884,-0.45861 2.151938,-1.181804 1.023051,-0.723194 1.922635,-1.728608 l -2.875132,-3.104435 q -0.599721,0.687914 -1.269998,1.217081 -0.670276,0.511526 -1.411107,0.846664 -0.723194,0.3175 -1.499301,0.47625 -0.776111,0.14111 -1.569858,0.14111 -0.740831,0 -1.393468,-0.123473 -0.652637,-0.141111 -1.23472,-0.388054 -0.564444,-0.246944 -1.040691,-0.599721 -0.45861,-0.352776 -0.829027,-0.811387 -0.352777,-0.45861 -0.59972,-1.005414 -0.229304,-0.546804 -0.3175,-1.146524 H 71.63801 q 0.14111,-1.781524 -0.08819,-3.298465 -0.229306,-1.516941 -0.793747,-2.751659 -0.546804,-1.252357 -1.411107,-2.222494 -0.846664,-0.970138 -1.975552,-1.622775 -1.111247,-0.670274 -2.469438,-1.005414 -1.340551,-0.352777 -2.875132,-0.352777 -1.481661,0 -2.804575,0.352777 -1.305274,0.33514 -2.416522,0.970137 -1.093607,0.617361 -1.975551,1.499302 -0.864303,0.881943 -1.481664,1.975551 -0.617357,1.093607 -0.952497,2.363605 -0.317497,1.269997 -0.317497,2.663465 0,1.37583 0.335137,2.645828 0.335137,1.252357 0.952497,2.345965 0.635,1.07597 1.552218,1.957911 0.91722,0.864304 2.081384,1.499301 1.164164,0.617361 2.557632,0.952498 1.393468,0.335139 2.998605,0.335139 z M 57.31527,81.203606 q 0.08819,-0.617357 0.282221,-1.128884 0.211666,-0.511527 0.529166,-0.93486 0.317498,-0.423331 0.723191,-0.740831 0.405694,-0.3175 0.881944,-0.529164 0.493887,-0.229306 1.058331,-0.33514 0.56444,-0.105833 1.181801,-0.105833 0.91722,0 1.69333,0.246943 0.793748,0.246947 1.393468,0.723194 0.599721,0.47625 0.987774,1.181804 0.405694,0.705554 0.529167,1.622771 z M 82.221343,93.21566 q 1.605135,0 2.980963,-0.423333 1.39347,-0.405693 2.416521,-1.164164 1.023054,-0.776107 1.605137,-1.852078 0.599721,-1.093607 0.599721,-2.434161 0,-1.305274 -0.423334,-2.240132 Q 88.977018,84.149295 88.21855,83.479018 87.46008,82.808743 86.401749,82.36777 85.343419,81.9268 84.073421,81.6093 L 82.23898,81.168329 q -0.59972,-0.14111 -1.05833,-0.3175 -0.458611,-0.176387 -0.776108,-0.388053 -0.29986,-0.229304 -0.45861,-0.511527 -0.15875,-0.282221 -0.15875,-0.652637 0,-0.370414 0.17639,-0.670275 0.194027,-0.29986 0.511524,-0.493889 0.33514,-0.211664 0.75847,-0.317498 0.440973,-0.105833 0.934861,-0.105833 0.370414,0 0.74083,0.05292 0.388054,0.05292 0.758471,0.15875 0.370416,0.10583 0.705553,0.29986 0.352777,0.194027 0.670277,0.458607 0.317498,0.264584 0.599721,0.599724 0.28222,0.335137 0.511527,0.776107 l 3.369019,-2.698742 q -0.599721,-0.93486 -1.428748,-1.622774 -0.811387,-0.705554 -1.781524,-1.164164 -0.970134,-0.45861 -2.063745,-0.687914 -1.093607,-0.229307 -2.240131,-0.229307 -1.005414,0 -1.940275,0.17639 -0.934857,0.176387 -1.763884,0.511527 -0.811385,0.335137 -1.499301,0.829024 -0.670275,0.47625 -1.146525,1.093608 -0.47625,0.61736 -0.74083,1.358193 -0.264584,0.740831 -0.264584,1.605135 0,1.217078 0.405694,2.151938 0.423333,0.934858 1.146524,1.640411 0.723194,0.687917 1.710968,1.164164 1.005414,0.47625 2.151938,0.758471 l 1.728608,0.423333 q 0.75847,0.194027 1.287637,0.405694 0.529164,0.194027 0.864301,0.44097 0.33514,0.229304 0.49389,0.529164 0.158747,0.299861 0.158747,0.687917 0,0.405693 -0.211664,0.740831 -0.194029,0.3175 -0.546806,0.546803 -0.335137,0.229307 -0.811385,0.352777 -0.47625,0.105834 -1.023053,0.105834 -0.740831,0 -1.428748,-0.194027 -0.687914,-0.194027 -1.322911,-0.564444 -0.61736,-0.370416 -1.164164,-0.91722 -0.546804,-0.564441 -1.005414,-1.305275 l -3.316102,2.875132 q 0.617357,0.987777 1.499301,1.763885 0.89958,0.75847 1.993188,1.287637 1.093608,0.529164 2.345968,0.811384 1.269994,0.282223 2.610548,0.282223 z m 20.461057,0 q 1.30527,0 2.54,-0.229306 1.23471,-0.211664 2.34596,-0.670274 1.12889,-0.45861 2.15194,-1.181804 1.02305,-0.723194 1.92263,-1.728608 l -2.87513,-3.104435 q -0.59972,0.687914 -1.26999,1.217081 -0.67028,0.511526 -1.41111,0.846664 -0.72319,0.3175 -1.4993,0.47625 -0.77611,0.14111 -1.56986,0.14111 -0.74083,0 -1.39347,-0.123473 -0.65264,-0.141111 -1.23472,-0.388054 -0.564444,-0.246944 -1.040694,-0.599721 -0.458608,-0.352776 -0.829025,-0.811387 -0.352777,-0.45861 -0.59972,-1.005414 -0.229307,-0.546804 -0.3175,-1.146524 h 14.163999 q 0.14111,-1.781524 -0.0882,-3.298465 -0.2293,-1.516941 -0.79375,-2.751659 -0.5468,-1.252357 -1.4111,-2.222494 -0.84667,-0.970138 -1.97555,-1.622775 -1.11125,-0.670274 -2.46944,-1.005414 -1.34056,-0.352777 -2.87513,-0.352777 -1.48167,0 -2.804584,0.352777 -1.305275,0.33514 -2.416522,0.970137 -1.093608,0.617361 -1.975548,1.499302 -0.864304,0.881943 -1.481664,1.975551 -0.617361,1.093607 -0.952498,2.363605 -0.3175,1.269997 -0.3175,2.663465 0,1.37583 0.33514,2.645828 0.335137,1.252357 0.952497,2.345965 0.634998,1.07597 1.552218,1.957911 0.917221,0.864304 2.081385,1.499301 1.164161,0.617361 2.557631,0.952498 1.393465,0.335139 2.998605,0.335139 z M 97.443661,81.203606 q 0.0882,-0.617357 0.282223,-1.128884 0.211664,-0.511527 0.529164,-0.93486 0.3175,-0.423331 0.723194,-0.740831 0.405693,-0.3175 0.88194,-0.529164 0.493888,-0.229306 1.058328,-0.33514 0.56445,-0.105833 1.18181,-0.105833 0.91722,0 1.69333,0.246943 0.79375,0.246947 1.39347,0.723194 0.59972,0.47625 0.98777,1.181804 0.4057,0.705554 0.52917,1.622771 z m 18.115129,11.465251 h 5.36221 v -9.94831 q 0,-1.075968 0.2293,-1.904994 0.22931,-0.829025 0.67028,-1.375831 0.44097,-0.564441 1.11125,-0.846664 0.67027,-0.282221 1.56986,-0.282221 0.88194,0 1.55221,0.282221 0.67028,0.282223 1.11125,0.846664 0.45861,0.546806 0.67027,1.375831 0.22931,0.829026 0.22931,1.904994 v 9.94831 h 5.36221 V 81.30944 q 0,-1.763885 -0.45861,-3.174992 -0.44097,-1.411108 -1.32291,-2.381242 -0.86431,-0.987777 -2.1343,-1.499304 -1.25236,-0.511524 -2.87514,-0.511524 -0.98777,0 -1.85207,0.176387 -0.84667,0.15875 -1.55222,0.493887 -0.70556,0.3175 -1.28764,0.79375 -0.58208,0.458607 -1.02305,1.075968 v -1.993189 h -5.36221 z m 31.43242,0.546803 q 1.4993,0 2.92805,-0.352776 1.42875,-0.352777 2.66346,-1.058331 1.23472,-0.723194 2.24014,-1.799161 1.00541,-1.093611 1.65805,-2.557635 l -4.83304,-2.028465 q -0.29986,0.793747 -0.77611,1.393468 -0.45861,0.59972 -1.05833,0.987774 -0.59972,0.388056 -1.32292,0.582083 -0.72319,0.194027 -1.53458,0.194027 -0.68791,0 -1.30527,-0.17639 -0.61736,-0.176387 -1.14652,-0.493887 -0.52917,-0.317497 -0.9525,-0.776107 -0.42334,-0.458611 -0.7232,-1.023054 -0.29986,-0.564444 -0.45861,-1.234718 -0.15875,-0.687917 -0.15875,-1.428747 0,-0.758471 0.15875,-1.428748 0.15875,-0.670274 0.45861,-1.234717 0.29986,-0.582084 0.7232,-1.023054 0.42333,-0.45861 0.9525,-0.776108 0.52916,-0.335139 1.14652,-0.493889 0.61736,-0.176388 1.30527,-0.176388 0.81139,0 1.53458,0.176388 0.7232,0.176389 1.32292,0.564443 0.59972,0.370417 1.05833,0.952497 0.47625,0.582084 0.77611,1.393471 l 4.83304,-1.975551 q -0.65264,-1.464024 -1.65805,-2.539995 -1.00542,-1.093607 -2.24014,-1.799161 -1.23471,-0.723194 -2.66346,-1.075971 -1.42875,-0.352777 -2.92805,-0.352777 -1.4993,0 -2.83985,0.352777 -1.34056,0.33514 -2.46944,0.970137 -1.11125,0.617361 -2.01083,1.499302 -0.89958,0.881943 -1.53458,1.975551 -0.61736,1.07597 -0.9525,2.345965 -0.33513,1.269997 -0.33513,2.645828 0,1.37583 0.33513,2.645825 0.33514,1.269998 0.9525,2.363605 0.635,1.075971 1.53458,1.957911 0.89958,0.881944 2.01083,1.516941 1.12888,0.617361 2.46944,0.952498 1.34055,0.335139 2.83985,0.335139 z m -0.635,6.8086 q 0.88194,0 1.69333,-0.194035 0.81139,-0.194027 1.42875,-0.582081 0.635,-0.370416 1.00541,-0.952497 0.37042,-0.582083 0.37042,-1.358191 0,-0.652637 -0.28222,-1.111247 -0.26459,-0.440971 -0.7232,-0.740831 -0.44097,-0.282223 -1.00541,-0.423333 -0.54681,-0.123471 -1.09361,-0.123471 -0.15875,0 -0.3175,0 -0.15875,0.01765 -0.29986,0.01765 -0.12347,0.01765 -0.26458,0.03528 -0.14111,0.03528 -0.28222,0.07056 l 1.37583,-2.028467 h -2.16958 l -2.04611,3.051521 1.28764,0.846664 q 0.28222,-0.194027 0.635,-0.29986 0.37041,-0.105833 0.75847,-0.105833 0.26458,0 0.51152,0.05292 0.24695,0.05292 0.42334,0.15875 0.19402,0.123471 0.29986,0.299861 0.12347,0.176387 0.12347,0.42333 0,0.246944 -0.12347,0.423334 -0.12348,0.176387 -0.35278,0.29986 -0.22931,0.123473 -0.5468,0.17639 -0.3175,0.05291 -0.7232,0.05291 -0.37041,0 -0.70555,-0.05291 -0.33514,-0.03528 -0.635,-0.141113 -0.29986,-0.08819 -0.59972,-0.211664 -0.28222,-0.123473 -0.59972,-0.299863 l -0.89958,1.887357 q 0.81138,0.423334 1.76388,0.617361 0.97014,0.211668 1.99319,0.211668 z m 21.2901,-6.8086 q 0.97014,0 1.83444,-0.176389 0.88194,-0.176387 1.62278,-0.511527 0.74083,-0.352777 1.34055,-0.829024 0.61736,-0.47625 1.05833,-1.040691 v 2.010828 h 5.36221 V 74.289181 h -5.36221 v 2.010828 q -0.28222,-0.388053 -0.67028,-0.723193 -0.37041,-0.352777 -0.81138,-0.634997 -0.42334,-0.282224 -0.91722,-0.493888 -0.49389,-0.229306 -1.05834,-0.388056 -0.5468,-0.15875 -1.14652,-0.229304 -0.59972,-0.08819 -1.25236,-0.08819 -1.32291,0 -2.52235,0.335137 -1.18181,0.3175 -2.20486,0.934857 -1.00541,0.617361 -1.83444,1.481664 -0.81138,0.864304 -1.37583,1.957912 -0.56444,1.07597 -0.88194,2.345965 -0.29986,1.269997 -0.29986,2.681105 0,1.411107 0.29986,2.681105 0.3175,1.269997 0.88194,2.345965 0.56445,1.07597 1.37583,1.957911 0.82903,0.864304 1.83444,1.481664 1.02305,0.61736 2.20486,0.934858 1.19944,0.335139 2.52235,0.335139 z m 1.32291,-4.603739 q -0.68791,0 -1.32291,-0.15875 -0.61736,-0.176387 -1.16416,-0.476247 -0.52917,-0.3175 -0.98778,-0.758471 -0.44097,-0.44097 -0.75847,-1.005414 -0.29986,-0.582083 -0.47625,-1.269997 -0.17639,-0.687914 -0.17639,-1.464024 0,-0.793748 0.17639,-1.464025 0.17639,-0.687914 0.47625,-1.252357 0.3175,-0.582081 0.75847,-1.023054 0.45861,-0.44097 0.98778,-0.740831 0.5468,-0.3175 1.16416,-0.476247 0.635,-0.17639 1.32291,-0.17639 0.68792,0 1.32292,0.17639 0.635,0.158747 1.16416,0.476247 0.54681,0.299861 0.98778,0.740831 0.44097,0.440973 0.75847,1.023054 0.3175,0.564443 0.47625,1.252357 0.17638,0.670277 0.17638,1.464025 0,0.77611 -0.17638,1.464024 -0.15875,0.687914 -0.47625,1.269997 -0.3175,0.564444 -0.75847,1.005414 -0.44097,0.440971 -0.98778,0.758471 -0.52916,0.29986 -1.1818,0.476247 -0.635,0.15875 -1.30528,0.15875 z"
         id="text1"
         style="font-weight:600;font-size:133.333px;font-family:'Alaska VAR';-inkscape-font-specification:'Alaska VAR Semi-Bold';white-space:pre;fill:url(#linearGradient3);stroke-width:0.264583"
         aria-label="Da essência à presença" />
      <path
         d="m 186.27806,86.369219 h 74.2992 v -4.850678 h -74.2992 z"
         id="text3"
         style="font-weight:600;font-size:56.6821px;font-family:'Alaska VAR';-inkscape-font-specification:'Alaska VAR Semi-Bold';fill:#282828;stroke-width:0.402516"
         aria-label="—" />
    </g>
  </g>
</svg>