<svg xmlns="http://www.w3.org/2000/svg" xmlns:xlink="http://www.w3.org/1999/xlink" width="1920" zoomAndPan="magnify" viewBox="0 0 1440 809.999993" height="1080" preserveAspectRatio="xMidYMid meet" version="1.2"><defs/><g id="f5886d7f8c"><g style="fill:#d6af5a;fill-opacity:1;"><g transform="translate(248.398954, 544.429826)"><path style="stroke:none" d="M 12.578125 0 L 12.578125 -21.25 C 25.878906 -23.851562 33.109375 -32.816406 34.265625 -48.140625 L 48.578125 -259.359375 C 49.441406 -274.972656 43.945312 -284.515625 32.09375 -287.984375 L 32.09375 -307.9375 L 104.09375 -307.9375 L 185.625 -80.234375 L 189.53125 -62.453125 L 193 -80.234375 L 271.5 -307.9375 L 343.921875 -307.9375 L 343.921875 -287.984375 C 331.785156 -284.515625 326.296875 -274.972656 327.453125 -259.359375 L 341.765625 -48.140625 C 342.628906 -32.816406 349.851562 -23.851562 363.4375 -21.25 L 363.4375 0 L 279.3125 0 L 279.3125 -21.25 L 299.25 -25.59375 L 286.25 -225.09375 L 286.25 -247.640625 L 281.90625 -225.09375 L 213.8125 -17.78125 L 168.28125 -17.78125 L 94.546875 -225.09375 L 89.78125 -247.640625 L 89.78125 -225.09375 L 76.765625 -25.59375 L 96.71875 -21.25 L 96.71875 0 Z M 12.578125 0 "/></g></g><g style="fill:#d6af5a;fill-opacity:1;"><g transform="translate(624.41847, 544.429826)"><path style="stroke:none" d="M 271.9375 -32.09375 L 250.25 -6.9375 L 221.625 -33.390625 C 210.925781 -21.242188 197.769531 -11.703125 182.15625 -4.765625 C 166.539062 2.171875 149.046875 5.640625 129.671875 5.640625 C 115.503906 5.640625 101.625 3.832031 88.03125 0.21875 C 74.445312 -3.394531 62.234375 -8.890625 51.390625 -16.265625 C 40.546875 -23.640625 31.867188 -32.960938 25.359375 -44.234375 C 18.859375 -55.515625 15.609375 -68.960938 15.609375 -84.578125 C 15.609375 -102.210938 20.304688 -117.390625 29.703125 -130.109375 C 39.097656 -142.828125 55.21875 -154.972656 78.0625 -166.546875 C 65.632812 -179.847656 56.890625 -191.773438 51.828125 -202.328125 C 46.765625 -212.878906 44.234375 -224.367188 44.234375 -236.796875 C 44.234375 -250.960938 48.132812 -263.613281 55.9375 -274.75 C 63.75 -285.882812 74.085938 -294.703125 86.953125 -301.203125 C 99.816406 -307.710938 114.054688 -310.96875 129.671875 -310.96875 C 144.128906 -310.96875 158.007812 -308.4375 171.3125 -303.375 C 184.613281 -298.3125 198.492188 -288.988281 212.953125 -275.40625 L 204.703125 -214.6875 L 181.28125 -214.6875 C 181.863281 -236.945312 178.6875 -253.570312 171.75 -264.5625 C 164.8125 -275.550781 150.785156 -281.1875 129.671875 -281.46875 C 121.285156 -281.46875 113.117188 -279.804688 105.171875 -276.484375 C 97.222656 -273.160156 90.71875 -268.171875 85.65625 -261.515625 C 80.59375 -254.867188 78.0625 -246.628906 78.0625 -236.796875 C 78.0625 -228.992188 80.804688 -220.320312 86.296875 -210.78125 C 91.796875 -201.238281 102.5 -188.804688 118.40625 -173.484375 L 215.984375 -83.265625 C 220.898438 -94.253906 224.007812 -105.890625 225.3125 -118.171875 C 226.613281 -130.460938 225.382812 -142.828125 221.625 -155.265625 L 210.34375 -159.171875 L 210.34375 -170.453125 L 244.609375 -176.078125 L 255.453125 -162.640625 C 258.628906 -144.128906 258.84375 -126.128906 256.09375 -108.640625 C 253.351562 -91.148438 248.222656 -75.175781 240.703125 -60.71875 Z M 129.671875 -26.890625 C 143.265625 -26.890625 155.84375 -29.488281 167.40625 -34.6875 C 178.976562 -39.894531 188.953125 -46.984375 197.328125 -55.953125 L 102.78125 -143.984375 C 85.726562 -138.492188 72.210938 -130.832031 62.234375 -121 C 52.265625 -111.164062 47.28125 -98.445312 47.28125 -82.84375 C 47.28125 -70.40625 50.960938 -60.066406 58.328125 -51.828125 C 65.703125 -43.585938 75.675781 -37.367188 88.25 -33.171875 C 100.832031 -28.984375 114.640625 -26.890625 129.671875 -26.890625 Z M 129.671875 -26.890625 "/></g></g><g style="fill:#d6af5a;fill-opacity:1;"><g transform="translate(911.539546, 544.429826)"><path style="stroke:none" d="M 14.75 0 L 14.75 -21.25 C 28.050781 -23.851562 34.703125 -33.109375 34.703125 -49.015625 L 34.703125 -258.484375 C 34.703125 -274.390625 28.050781 -283.785156 14.75 -286.671875 L 14.75 -307.9375 L 122.734375 -307.9375 C 145.003906 -307.9375 164.378906 -305.476562 180.859375 -300.5625 C 197.335938 -295.644531 210.054688 -287.546875 219.015625 -276.265625 C 227.984375 -264.992188 232.46875 -249.960938 232.46875 -231.171875 C 232.46875 -221.046875 230.15625 -211.570312 225.53125 -202.75 C 220.90625 -193.9375 214.90625 -186.566406 207.53125 -180.640625 C 200.15625 -174.710938 192.128906 -170.59375 183.453125 -168.28125 C 197.617188 -166.25 210.195312 -162.414062 221.1875 -156.78125 C 232.175781 -151.144531 240.921875 -143.050781 247.421875 -132.5 C 253.929688 -121.945312 257.1875 -108.285156 257.1875 -91.515625 C 257.1875 -58.265625 246.488281 -34.695312 225.09375 -20.8125 C 203.695312 -6.9375 171.023438 0 127.078125 0 Z M 115.796875 -181.71875 C 140.660156 -181.71875 158.945312 -185.984375 170.65625 -194.515625 C 182.375 -203.046875 188.234375 -215.265625 188.234375 -231.171875 C 188.234375 -244.753906 183.53125 -254.722656 174.125 -261.078125 C 164.726562 -267.441406 147.597656 -270.625 122.734375 -270.625 L 79.796875 -270.625 L 79.796875 -182.15625 Z M 127.078125 -37.296875 C 149.046875 -37.296875 166.175781 -38.957031 178.46875 -42.28125 C 190.757812 -45.613281 199.429688 -51.328125 204.484375 -59.421875 C 209.546875 -67.515625 212.078125 -78.644531 212.078125 -92.8125 C 212.078125 -105.25 209.328125 -114.9375 203.828125 -121.875 C 198.335938 -128.8125 190.894531 -133.867188 181.5 -137.046875 C 172.101562 -140.234375 161.765625 -142.257812 150.484375 -143.125 C 139.210938 -143.988281 127.648438 -144.421875 115.796875 -144.421875 L 79.796875 -144.421875 L 79.796875 -37.296875 Z M 127.078125 -37.296875 "/></g></g></g></svg>