<?xml version="1.0" encoding="UTF-8" standalone="no"?>
<!-- Created with Inkscape (http://www.inkscape.org/) -->

<svg
   width="185.9034mm"
   height="146.35657mm"
   viewBox="0 0 185.9034 146.35657"
   version="1.1"
   id="svg1"
   xmlns:xlink="http://www.w3.org/1999/xlink"
   xmlns="http://www.w3.org/2000/svg"
   xmlns:svg="http://www.w3.org/2000/svg">
  <defs
     id="defs1">
    <linearGradient
       id="linearGradient2">
      <stop
         style="stop-color:#c0ae82;stop-opacity:1;"
         offset="0"
         id="stop2" />
      <stop
         style="stop-color:#baa66e;stop-opacity:1;"
         offset="1"
         id="stop3" />
    </linearGradient>
    <linearGradient
       xlink:href="#linearGradient2"
       id="linearGradient3"
       x1="56.910126"
       y1="106.3896"
       x2="242.81351"
       y2="106.3896"
       gradientUnits="userSpaceOnUse"
       gradientTransform="translate(0,-24.550403)" />
  </defs>
  <g
     id="layer1"
     transform="translate(-56.910125,-31.41494)">
    <g
       id="g3">
      <path
         style="font-size:192px;font-family:Plaster;-inkscape-font-specification:Plaster;white-space:pre;fill:url(#linearGradient3);stroke-width:1.0558"
         d="m 192.39439,8.6609078 h 8.20564 q 33.55196,0 40.11647,26.8642742 2.097,8.704024 2.097,20.094476 v 99.397822 h -50.41911 z m -67.65096,0 h 50.69263 V 155.01748 h -50.69263 z m -67.833304,0 H 107.60276 V 155.01748 H 56.910126 Z"
         id="text1"
         aria-label="M" />
      <path
         style="font-size:50.1629px;font-family:'Alaska VAR';-inkscape-font-specification:'Alaska VAR';fill:#c0ae82;stroke-width:0.261265"
         d="m 57.343389,198.6702 h 5.317267 v -28.01598 l 11.58763,19.01174 H 77.78477 L 89.3724,170.65422 v 28.01598 h 5.317267 V 161.80047 H 89.171748 L 76.003987,183.47084 62.861308,161.80047 h -5.517919 z m 63.280531,0.70228 q 4.26384,0 7.80033,-1.45473 3.56157,-1.45472 6.11987,-4.01303 2.55831,-2.58339 3.98795,-6.06971 1.42965,-3.5114 1.42965,-7.59968 0,-2.73388 -0.65212,-5.19186 -0.62704,-2.48306 -1.83095,-4.5899 -1.20391,-2.13193 -2.93453,-3.86255 -1.70554,-1.73062 -3.86254,-2.93453 -2.13192,-1.22899 -4.69023,-1.88111 -2.53323,-0.67719 -5.36743,-0.67719 -4.26385,0 -7.82541,1.45472 -3.53649,1.45472 -6.0948,4.03811 -2.5583,2.55831 -3.98795,6.06971 -1.40456,3.48632 -1.40456,7.5746 0,2.7088 0.62704,5.19186 0.65212,2.48306 1.85603,4.61499 1.20391,2.10684 2.90944,3.83746 1.70554,1.73062 3.86255,2.95961 2.157,1.20391 4.69023,1.85603 2.53322,0.6772 5.36743,0.6772 z m 0,-4.81564 q -2.0316,0 -3.83746,-0.47655 -1.80587,-0.50163 -3.33584,-1.40456 -1.50488,-0.92801 -2.70879,-2.20717 -1.20391,-1.30423 -2.0316,-2.88436 -0.82769,-1.60522 -1.27915,-3.46124 -0.42639,-1.85603 -0.42639,-3.88763 0,-2.05668 0.42639,-3.88762 0.45146,-1.85603 1.27915,-3.43616 0.82769,-1.60521 2.0316,-2.88437 1.20391,-1.30423 2.70879,-2.20717 1.52997,-0.92801 3.33584,-1.40456 1.80586,-0.50163 3.83746,-0.50163 2.05668,0 3.83746,0.50163 1.80586,0.47655 3.31075,1.40456 1.52997,0.90294 2.73388,2.20717 1.20391,1.27916 2.0316,2.88437 0.85277,1.58013 1.27915,3.43616 0.45147,1.83094 0.45147,3.88762 0,2.0316 -0.45147,3.88763 -0.42638,1.85602 -1.27915,3.46124 -0.82769,1.58013 -2.0316,2.88436 -1.20391,1.27916 -2.73388,2.20717 -1.50489,0.90293 -3.31075,1.40456 -1.80586,0.47655 -3.83746,0.47655 z m 40.68214,4.81564 q 3.26059,0 6.01955,-0.80261 2.78404,-0.82769 4.79056,-2.63355 2.00651,-1.83095 3.13518,-4.71531 1.15374,-2.90945 1.15374,-7.07297 v -22.34757 h -5.34235 v 22.37265 q 0,2.95961 -0.75244,4.96613 -0.72736,1.98143 -2.0316,3.21042 -1.30423,1.20391 -3.08501,1.73062 -1.78079,0.52671 -3.88763,0.52671 -2.10684,0 -3.91271,-0.52671 -1.78078,-0.52671 -3.08501,-1.73062 -1.30424,-1.22899 -2.05668,-3.21042 -0.72736,-2.00652 -0.72736,-4.96613 v -22.37265 h -5.31727 v 22.34757 q 0,4.16352 1.12866,7.07297 1.12867,2.88436 3.13518,4.71531 2.00652,1.80586 4.76548,2.63355 2.78404,0.80261 6.06971,0.80261 z m 23.65178,-0.70228 h 5.31726 v -16.60392 h 2.63356 l 14.9987,16.60392 h 6.79708 l -15.34985,-16.75441 q 2.60847,-0.22573 4.5899,-1.0785 2.00652,-0.87785 3.33584,-2.18209 1.3544,-1.32932 2.0316,-3.03486 0.67719,-1.73062 0.67719,-3.68697 0,-2.20717 -0.75244,-4.06319 -0.75244,-1.85603 -2.33257,-3.21043 -1.58014,-1.3544 -3.98795,-2.10684 -2.40782,-0.75244 -5.71858,-0.75244 h -12.23974 z m 5.31726,-21.14367 v -11.11108 h 6.54626 q 1.88111,0 3.26059,0.35114 1.40456,0.35114 2.33258,1.05342 0.95309,0.70228 1.40456,1.75571 0.47655,1.02833 0.47655,2.38273 0,1.37948 -0.47655,2.4329 -0.45147,1.02834 -1.40456,1.73062 -0.92802,0.70228 -2.33258,1.05342 -1.37948,0.35114 -3.26059,0.35114 z m 23.60162,21.14367 h 5.61824 l 4.26385,-10.48405 h 16.60392 l 4.26385,10.48405 h 5.64332 l -15.32476,-36.86973 h -5.76874 z m 11.81336,-15.24952 6.37069,-15.72607 6.37069,15.72607 z"
         id="text3"
         transform="scale(0.987458,1.0127013)"
         aria-label="MOURA" />
    </g>
  </g>
</svg>
